<svg xmlns="http://www.w3.org/2000/svg" xmlns:xlink="http://www.w3.org/1999/xlink" width="500" zoomAndPan="magnify" viewBox="0 0 375 374.999991" height="500" preserveAspectRatio="xMidYMid meet" version="1.0"><defs><g/><clipPath id="d6b1750bfa"><path d="M 150 121 L 231 121 L 231 184 L 150 184 Z M 150 121 " clip-rule="nonzero"/></clipPath><clipPath id="6d0c4103ec"><path d="M 136.902344 147.511719 L 182.773438 107.679688 L 237.847656 171.105469 L 191.976562 210.9375 Z M 136.902344 147.511719 " clip-rule="nonzero"/></clipPath><clipPath id="a745842b76"><path d="M 136.902344 147.511719 L 182.773438 107.679688 L 237.847656 171.105469 L 191.976562 210.9375 Z M 136.902344 147.511719 " clip-rule="nonzero"/></clipPath></defs><g fill="#190e00" fill-opacity="1"><g transform="translate(71.508603, 225.527035)"><g><path d="M 9.839844 -6.242188 C 11.792969 -6.914062 12.898438 -8.28125 12.898438 -10.382812 C 12.898438 -12.898438 10.75 -15.171875 5.960938 -15.171875 L 1.992188 -15.171875 C 1.257812 -15.171875 0.910156 -15.128906 0.910156 -14.738281 C 0.910156 -13.9375 2.210938 -14.628906 2.210938 -12.203125 L 2.210938 -3.144531 C 2.210938 -0.671875 0.910156 -1.234375 0.910156 -0.433594 C 0.910156 -0.109375 1.257812 0 1.992188 0 L 4.378906 0 C 5.136719 0 5.441406 -0.109375 5.441406 -0.433594 C 5.441406 -1.234375 4.203125 -0.671875 4.203125 -3.144531 L 4.203125 -5.546875 C 4.203125 -6.308594 4.789062 -6.242188 6.199219 -6.046875 C 7.566406 -5.875 7.910156 -5.765625 8.324219 -5.027344 L 9.777344 -2.363281 C 10.492188 -1.082031 9.40625 -1.0625 9.40625 -0.5 C 9.40625 -0.109375 9.777344 0 10.46875 0 L 12.808594 0 C 13.351562 0 13.65625 -0.109375 13.65625 -0.433594 C 13.65625 -1.128906 12.765625 -0.84375 11.984375 -2.277344 Z M 7.414062 -6.9375 C 6.414062 -6.957031 4.203125 -7.152344 4.203125 -8.0625 L 4.203125 -13.632812 C 4.203125 -14.089844 4.464844 -14.21875 5.917969 -14.195312 C 9.039062 -14.175781 10.730469 -12.289062 10.730469 -10.101562 C 10.730469 -8 9.386719 -6.894531 7.414062 -6.9375 Z M 7.414062 -6.9375 "/></g></g></g><g fill="#190e00" fill-opacity="1"><g transform="translate(91.163635, 225.527035)"><g><path d="M 3.445312 -3.921875 C 3.683594 -4.574219 3.683594 -4.574219 6.980469 -4.574219 C 10.101562 -4.574219 10.101562 -4.574219 10.339844 -3.945312 L 10.878906 -2.578125 C 11.554688 -0.890625 10.207031 -1.128906 10.207031 -0.410156 C 10.207031 -0.109375 10.554688 0 11.074219 0 L 13.613281 0 C 14.371094 0 14.675781 -0.109375 14.675781 -0.476562 C 14.675781 -1.128906 13.785156 -0.800781 13.070312 -2.578125 L 8.257812 -14.78125 C 8.171875 -15.042969 7.976562 -15.171875 7.695312 -15.171875 L 5.722656 -15.171875 C 5.246094 -15.171875 5.117188 -15 5.117188 -14.71875 C 5.117188 -14.023438 6.351562 -14.175781 5.875 -12.984375 L 1.777344 -2.558594 C 1.0625 -0.738281 -0.0234375 -1.128906 -0.0234375 -0.410156 C -0.0234375 -0.0859375 0.347656 0 0.890625 0 L 2.644531 0 C 3.097656 0 3.445312 -0.0859375 3.445312 -0.457031 C 3.445312 -1.105469 2.234375 -0.800781 2.90625 -2.558594 Z M 7 -5.503906 C 4.054688 -5.503906 4.054688 -5.503906 4.25 -6.003906 L 6.871094 -12.789062 L 9.515625 -6.070312 C 9.730469 -5.503906 9.730469 -5.503906 7 -5.503906 Z M 7 -5.503906 "/></g></g></g><g fill="#190e00" fill-opacity="1"><g transform="translate(111.490366, 225.527035)"><g><path d="M 1.992188 -15.171875 C 1.257812 -15.171875 0.910156 -15.128906 0.910156 -14.738281 C 0.910156 -13.9375 2.210938 -14.628906 2.210938 -12.203125 L 2.210938 -2.96875 C 2.210938 -0.542969 0.910156 -1.234375 0.910156 -0.433594 C 0.910156 -0.0429688 1.257812 0 1.992188 0 L 7.066406 0 C 12.808594 0 15 -3.792969 15 -7.824219 C 15 -11.226562 12.65625 -15.171875 6.460938 -15.171875 Z M 6.828125 -0.953125 C 4.617188 -0.953125 4.203125 -1.34375 4.203125 -2.234375 L 4.203125 -13.285156 C 4.203125 -14.089844 4.507812 -14.242188 5.65625 -14.242188 C 10.253906 -14.242188 12.851562 -11.011719 12.851562 -6.804688 C 12.851562 -3.859375 11.683594 -0.953125 6.828125 -0.953125 Z M 6.828125 -0.953125 "/></g></g></g><g fill="#190e00" fill-opacity="1"><g transform="translate(132.813833, 225.527035)"><g><path d="M 2.210938 -3.144531 C 2.210938 -0.671875 0.910156 -1.234375 0.910156 -0.433594 C 0.910156 -0.109375 1.257812 0 1.992188 0 L 4.378906 0 C 5.136719 0 5.441406 -0.109375 5.441406 -0.433594 C 5.441406 -1.234375 4.203125 -0.671875 4.203125 -3.144531 L 4.203125 -12.03125 C 4.203125 -14.5 5.484375 -13.9375 5.484375 -14.738281 C 5.484375 -15.0625 5.136719 -15.171875 4.421875 -15.171875 L 2.039062 -15.171875 C 1.257812 -15.171875 0.953125 -15.0625 0.953125 -14.738281 C 0.953125 -13.9375 2.210938 -14.5 2.210938 -12.03125 Z M 2.210938 -3.144531 "/></g></g></g><g fill="#190e00" fill-opacity="1"><g transform="translate(144.6684, 225.527035)"><g><path d="M 3.445312 -3.921875 C 3.683594 -4.574219 3.683594 -4.574219 6.980469 -4.574219 C 10.101562 -4.574219 10.101562 -4.574219 10.339844 -3.945312 L 10.878906 -2.578125 C 11.554688 -0.890625 10.207031 -1.128906 10.207031 -0.410156 C 10.207031 -0.109375 10.554688 0 11.074219 0 L 13.613281 0 C 14.371094 0 14.675781 -0.109375 14.675781 -0.476562 C 14.675781 -1.128906 13.785156 -0.800781 13.070312 -2.578125 L 8.257812 -14.78125 C 8.171875 -15.042969 7.976562 -15.171875 7.695312 -15.171875 L 5.722656 -15.171875 C 5.246094 -15.171875 5.117188 -15 5.117188 -14.71875 C 5.117188 -14.023438 6.351562 -14.175781 5.875 -12.984375 L 1.777344 -2.558594 C 1.0625 -0.738281 -0.0234375 -1.128906 -0.0234375 -0.410156 C -0.0234375 -0.0859375 0.347656 0 0.890625 0 L 2.644531 0 C 3.097656 0 3.445312 -0.0859375 3.445312 -0.457031 C 3.445312 -1.105469 2.234375 -0.800781 2.90625 -2.558594 Z M 7 -5.503906 C 4.054688 -5.503906 4.054688 -5.503906 4.25 -6.003906 L 6.871094 -12.789062 L 9.515625 -6.070312 C 9.730469 -5.503906 9.730469 -5.503906 7 -5.503906 Z M 7 -5.503906 "/></g></g></g><g fill="#190e00" fill-opacity="1"><g transform="translate(164.995131, 225.527035)"><g><path d="M 13.113281 -15.171875 C 12.441406 -15.171875 12.136719 -15.085938 12.136719 -14.71875 C 12.136719 -14.003906 13.285156 -14.304688 13.308594 -12.570312 L 13.332031 -4.140625 L 3.554688 -14.824219 C 3.339844 -15.0625 3.164062 -15.171875 2.882812 -15.171875 L 1.90625 -15.171875 C 1.171875 -15.171875 0.824219 -15.128906 0.824219 -14.738281 C 0.824219 -13.9375 2.125 -14.628906 2.125 -12.203125 L 2.125 -2.601562 C 2.125 -0.867188 0.976562 -1.171875 0.976562 -0.457031 C 0.976562 -0.109375 1.300781 0 1.90625 0 L 3.382812 0 C 4.054688 0 4.355469 -0.0859375 4.355469 -0.457031 C 4.355469 -1.171875 3.1875 -0.867188 3.1875 -2.601562 L 3.144531 -12.3125 L 12.789062 -1.863281 C 13.179688 -1.410156 13.351562 -0.976562 13.351562 -0.519531 C 13.351562 -0.238281 13.523438 0 13.828125 0 C 14.175781 0 14.371094 -0.171875 14.371094 -0.671875 L 14.371094 -12.570312 C 14.371094 -14.304688 15.519531 -14.003906 15.519531 -14.71875 C 15.519531 -15.085938 15.195312 -15.171875 14.566406 -15.171875 Z M 13.113281 -15.171875 "/></g></g></g><g fill="#190e00" fill-opacity="1"><g transform="translate(186.773614, 225.527035)"><g><path d="M 7.910156 -13.136719 C 7.910156 -13.894531 8.214844 -14.21875 9.058594 -14.21875 C 10.75 -14.21875 11.074219 -13.570312 11.792969 -12.226562 C 12.117188 -11.597656 12.3125 -11.378906 12.59375 -11.378906 C 13.003906 -11.378906 13.046875 -11.726562 13.027344 -12.117188 C 13.003906 -13.15625 12.917969 -13.828125 12.746094 -14.4375 C 12.613281 -14.957031 12.375 -15.195312 10.988281 -15.195312 L 2.816406 -15.171875 C 1.429688 -15.171875 1.191406 -14.933594 1.0625 -14.414062 C 0.890625 -13.808594 0.800781 -13.136719 0.78125 -12.09375 C 0.757812 -11.703125 0.800781 -11.359375 1.214844 -11.359375 C 1.496094 -11.359375 1.691406 -11.597656 2.015625 -12.226562 C 2.730469 -13.546875 3.054688 -14.195312 4.746094 -14.195312 C 5.613281 -14.195312 5.894531 -13.871094 5.894531 -13.113281 L 5.894531 -3.144531 C 5.894531 -0.671875 4.617188 -1.234375 4.617188 -0.433594 C 4.617188 -0.109375 4.964844 0 5.679688 0 L 8.085938 0 C 8.84375 0 9.148438 -0.109375 9.148438 -0.433594 C 9.148438 -1.234375 7.910156 -0.671875 7.910156 -3.144531 Z M 7.910156 -13.136719 "/></g></g></g><g fill="#190e00" fill-opacity="1"><g transform="translate(206.03862, 225.527035)"><g/></g></g><g fill="#190e00" fill-opacity="1"><g transform="translate(215.834728, 225.527035)"><g><path d="M 9.839844 -6.242188 C 11.792969 -6.914062 12.898438 -8.28125 12.898438 -10.382812 C 12.898438 -12.898438 10.75 -15.171875 5.960938 -15.171875 L 1.992188 -15.171875 C 1.257812 -15.171875 0.910156 -15.128906 0.910156 -14.738281 C 0.910156 -13.9375 2.210938 -14.628906 2.210938 -12.203125 L 2.210938 -3.144531 C 2.210938 -0.671875 0.910156 -1.234375 0.910156 -0.433594 C 0.910156 -0.109375 1.257812 0 1.992188 0 L 4.378906 0 C 5.136719 0 5.441406 -0.109375 5.441406 -0.433594 C 5.441406 -1.234375 4.203125 -0.671875 4.203125 -3.144531 L 4.203125 -5.546875 C 4.203125 -6.308594 4.789062 -6.242188 6.199219 -6.046875 C 7.566406 -5.875 7.910156 -5.765625 8.324219 -5.027344 L 9.777344 -2.363281 C 10.492188 -1.082031 9.40625 -1.0625 9.40625 -0.5 C 9.40625 -0.109375 9.777344 0 10.46875 0 L 12.808594 0 C 13.351562 0 13.65625 -0.109375 13.65625 -0.433594 C 13.65625 -1.128906 12.765625 -0.84375 11.984375 -2.277344 Z M 7.414062 -6.9375 C 6.414062 -6.957031 4.203125 -7.152344 4.203125 -8.0625 L 4.203125 -13.632812 C 4.203125 -14.089844 4.464844 -14.21875 5.917969 -14.195312 C 9.039062 -14.175781 10.730469 -12.289062 10.730469 -10.101562 C 10.730469 -8 9.386719 -6.894531 7.414062 -6.9375 Z M 7.414062 -6.9375 "/></g></g></g><g fill="#190e00" fill-opacity="1"><g transform="translate(235.48976, 225.527035)"><g><path d="M 2.210938 -3.144531 C 2.210938 -0.671875 0.910156 -1.234375 0.910156 -0.433594 C 0.910156 -0.109375 1.257812 0 1.992188 0 L 4.378906 0 C 5.136719 0 5.441406 -0.109375 5.441406 -0.433594 C 5.441406 -1.234375 4.203125 -0.671875 4.203125 -3.144531 L 4.203125 -12.03125 C 4.203125 -14.5 5.484375 -13.9375 5.484375 -14.738281 C 5.484375 -15.0625 5.136719 -15.171875 4.421875 -15.171875 L 2.039062 -15.171875 C 1.257812 -15.171875 0.953125 -15.0625 0.953125 -14.738281 C 0.953125 -13.9375 2.210938 -14.5 2.210938 -12.03125 Z M 2.210938 -3.144531 "/></g></g></g><g fill="#190e00" fill-opacity="1"><g transform="translate(247.344327, 225.527035)"><g><path d="M 13.113281 -15.171875 C 12.441406 -15.171875 12.136719 -15.085938 12.136719 -14.71875 C 12.136719 -14.003906 13.285156 -14.304688 13.308594 -12.570312 L 13.332031 -4.140625 L 3.554688 -14.824219 C 3.339844 -15.0625 3.164062 -15.171875 2.882812 -15.171875 L 1.90625 -15.171875 C 1.171875 -15.171875 0.824219 -15.128906 0.824219 -14.738281 C 0.824219 -13.9375 2.125 -14.628906 2.125 -12.203125 L 2.125 -2.601562 C 2.125 -0.867188 0.976562 -1.171875 0.976562 -0.457031 C 0.976562 -0.109375 1.300781 0 1.90625 0 L 3.382812 0 C 4.054688 0 4.355469 -0.0859375 4.355469 -0.457031 C 4.355469 -1.171875 3.1875 -0.867188 3.1875 -2.601562 L 3.144531 -12.3125 L 12.789062 -1.863281 C 13.179688 -1.410156 13.351562 -0.976562 13.351562 -0.519531 C 13.351562 -0.238281 13.523438 0 13.828125 0 C 14.175781 0 14.371094 -0.171875 14.371094 -0.671875 L 14.371094 -12.570312 C 14.371094 -14.304688 15.519531 -14.003906 15.519531 -14.71875 C 15.519531 -15.085938 15.195312 -15.171875 14.566406 -15.171875 Z M 13.113281 -15.171875 "/></g></g></g><g fill="#190e00" fill-opacity="1"><g transform="translate(269.12281, 225.527035)"><g><path d="M 8.410156 0.195312 C 11.445312 0.152344 14.328125 -1.429688 14.328125 -2.796875 L 14.328125 -4.789062 C 14.328125 -6.980469 15.109375 -6.480469 15.109375 -7.238281 C 15.109375 -7.566406 14.761719 -7.671875 14.347656 -7.671875 L 11.121094 -7.671875 C 10.359375 -7.671875 10.058594 -7.566406 10.058594 -7.21875 C 10.058594 -6.351562 12.332031 -6.828125 12.332031 -4.789062 L 12.332031 -2.710938 C 12.332031 -1.667969 10.492188 -1.039062 8.910156 -1.039062 C 5.222656 -1.039062 2.90625 -4.203125 2.925781 -8.367188 C 2.925781 -11.335938 4.789062 -14.195312 8 -14.195312 C 10.664062 -14.195312 11.683594 -12.703125 12.613281 -11.402344 C 12.984375 -10.902344 13.222656 -10.597656 13.570312 -10.640625 C 13.914062 -10.6875 13.980469 -10.96875 13.914062 -11.402344 C 13.699219 -12.679688 13.503906 -13.570312 13.332031 -14.195312 C 13.136719 -15.109375 12.917969 -15.347656 12.527344 -15.347656 C 12.160156 -15.347656 12.03125 -15.085938 11.53125 -15.085938 C 10.925781 -15.085938 10.273438 -15.390625 8.777344 -15.390625 C 4.160156 -15.390625 0.84375 -11.8125 0.84375 -7.238281 C 0.84375 -3.011719 3.707031 0.261719 8.410156 0.195312 Z M 8.410156 0.195312 "/></g></g></g><g fill="#190e00" fill-opacity="1"><g transform="translate(290.879629, 225.527035)"><g><path d="M 6.394531 0.214844 C 9.253906 0.195312 11.878906 -1.496094 11.792969 -4.25 C 11.703125 -6.828125 9.296875 -7.628906 6.980469 -8.757812 C 4.921875 -9.777344 3.339844 -10.359375 3.339844 -12.03125 C 3.339844 -13.351562 4.269531 -14.328125 6.046875 -14.328125 C 7.976562 -14.328125 9.210938 -12.832031 9.90625 -11.726562 C 10.1875 -11.25 10.449219 -11.03125 10.75 -11.03125 C 11.097656 -11.03125 11.164062 -11.335938 11.097656 -11.746094 C 10.925781 -12.808594 10.730469 -13.570312 10.578125 -14.195312 C 10.359375 -15.109375 10.253906 -15.347656 9.839844 -15.347656 C 9.492188 -15.347656 9.363281 -15.109375 8.863281 -15.109375 C 8.257812 -15.109375 7.476562 -15.347656 6.523438 -15.347656 C 3.1875 -15.347656 1.429688 -13.460938 1.429688 -11.445312 C 1.429688 -8.800781 3.792969 -7.910156 5.980469 -6.847656 C 7.847656 -5.960938 9.839844 -5.246094 9.730469 -3.425781 C 9.667969 -2.058594 8.714844 -0.824219 6.609375 -0.824219 C 4.074219 -0.84375 2.90625 -2.601562 2.277344 -4.054688 C 2.015625 -4.574219 1.777344 -4.789062 1.472656 -4.789062 C 1.128906 -4.789062 1.0625 -4.464844 1.105469 -4.03125 C 1.257812 -2.621094 1.453125 -1.691406 1.582031 -0.996094 C 1.734375 -0.0859375 1.949219 0.195312 2.363281 0.195312 C 2.710938 0.195312 2.839844 -0.0664062 3.339844 -0.0664062 C 3.988281 -0.0664062 4.746094 0.214844 6.394531 0.214844 Z M 6.394531 0.214844 "/></g></g></g><g fill="#190e00" fill-opacity="1"><g transform="translate(133.383599, 255.527033)"><g><path d="M 6.394531 0.214844 C 9.253906 0.195312 11.878906 -1.496094 11.792969 -4.25 C 11.703125 -6.828125 9.296875 -7.628906 6.980469 -8.757812 C 4.921875 -9.777344 3.339844 -10.359375 3.339844 -12.03125 C 3.339844 -13.351562 4.269531 -14.328125 6.046875 -14.328125 C 7.976562 -14.328125 9.210938 -12.832031 9.90625 -11.726562 C 10.1875 -11.25 10.449219 -11.03125 10.75 -11.03125 C 11.097656 -11.03125 11.164062 -11.335938 11.097656 -11.746094 C 10.925781 -12.808594 10.730469 -13.570312 10.578125 -14.195312 C 10.359375 -15.109375 10.253906 -15.347656 9.839844 -15.347656 C 9.492188 -15.347656 9.363281 -15.109375 8.863281 -15.109375 C 8.257812 -15.109375 7.476562 -15.347656 6.523438 -15.347656 C 3.1875 -15.347656 1.429688 -13.460938 1.429688 -11.445312 C 1.429688 -8.800781 3.792969 -7.910156 5.980469 -6.847656 C 7.847656 -5.960938 9.839844 -5.246094 9.730469 -3.425781 C 9.667969 -2.058594 8.714844 -0.824219 6.609375 -0.824219 C 4.074219 -0.84375 2.90625 -2.601562 2.277344 -4.054688 C 2.015625 -4.574219 1.777344 -4.789062 1.472656 -4.789062 C 1.128906 -4.789062 1.0625 -4.464844 1.105469 -4.03125 C 1.257812 -2.621094 1.453125 -1.691406 1.582031 -0.996094 C 1.734375 -0.0859375 1.949219 0.195312 2.363281 0.195312 C 2.710938 0.195312 2.839844 -0.0664062 3.339844 -0.0664062 C 3.988281 -0.0664062 4.746094 0.214844 6.394531 0.214844 Z M 6.394531 0.214844 "/></g></g></g><g fill="#190e00" fill-opacity="1"><g transform="translate(151.4352, 255.527033)"><g><path d="M 7.910156 -13.136719 C 7.910156 -13.894531 8.214844 -14.21875 9.058594 -14.21875 C 10.75 -14.21875 11.074219 -13.570312 11.792969 -12.226562 C 12.117188 -11.597656 12.3125 -11.378906 12.59375 -11.378906 C 13.003906 -11.378906 13.046875 -11.726562 13.027344 -12.117188 C 13.003906 -13.15625 12.917969 -13.828125 12.746094 -14.4375 C 12.613281 -14.957031 12.375 -15.195312 10.988281 -15.195312 L 2.816406 -15.171875 C 1.429688 -15.171875 1.191406 -14.933594 1.0625 -14.414062 C 0.890625 -13.808594 0.800781 -13.136719 0.78125 -12.09375 C 0.757812 -11.703125 0.800781 -11.359375 1.214844 -11.359375 C 1.496094 -11.359375 1.691406 -11.597656 2.015625 -12.226562 C 2.730469 -13.546875 3.054688 -14.195312 4.746094 -14.195312 C 5.613281 -14.195312 5.894531 -13.871094 5.894531 -13.113281 L 5.894531 -3.144531 C 5.894531 -0.671875 4.617188 -1.234375 4.617188 -0.433594 C 4.617188 -0.109375 4.964844 0 5.679688 0 L 8.085938 0 C 8.84375 0 9.148438 -0.109375 9.148438 -0.433594 C 9.148438 -1.234375 7.910156 -0.671875 7.910156 -3.144531 Z M 7.910156 -13.136719 "/></g></g></g><g fill="#190e00" fill-opacity="1"><g transform="translate(170.700205, 255.527033)"><g><path d="M 7.976562 0.214844 C 11.941406 0.214844 13.71875 -2.363281 13.71875 -6.15625 L 13.71875 -12.570312 C 13.742188 -14.304688 14.890625 -14.003906 14.890625 -14.71875 C 14.890625 -15.085938 14.566406 -15.171875 13.9375 -15.171875 L 12.484375 -15.171875 C 11.8125 -15.171875 11.507812 -15.085938 11.507812 -14.71875 C 11.507812 -14.003906 12.65625 -14.304688 12.65625 -12.570312 L 12.703125 -5.851562 C 12.703125 -3.054688 11.226562 -0.933594 8.410156 -0.933594 C 5.742188 -0.933594 4.140625 -2.578125 4.140625 -5.65625 L 4.140625 -12.007812 C 4.140625 -14.457031 5.441406 -13.894531 5.441406 -14.695312 C 5.441406 -15.042969 5.09375 -15.128906 4.355469 -15.128906 L 1.972656 -15.128906 C 1.191406 -15.128906 0.890625 -15.042969 0.890625 -14.695312 C 0.890625 -13.894531 2.144531 -14.457031 2.144531 -12.007812 L 2.144531 -6.003906 C 2.144531 -2.125 4.3125 0.214844 7.976562 0.214844 Z M 7.976562 0.214844 "/></g></g></g><g fill="#190e00" fill-opacity="1"><g transform="translate(191.698648, 255.527033)"><g><path d="M 1.992188 -15.171875 C 1.257812 -15.171875 0.910156 -15.128906 0.910156 -14.738281 C 0.910156 -13.9375 2.210938 -14.628906 2.210938 -12.203125 L 2.210938 -2.96875 C 2.210938 -0.542969 0.910156 -1.234375 0.910156 -0.433594 C 0.910156 -0.0429688 1.257812 0 1.992188 0 L 7.066406 0 C 12.808594 0 15 -3.792969 15 -7.824219 C 15 -11.226562 12.65625 -15.171875 6.460938 -15.171875 Z M 6.828125 -0.953125 C 4.617188 -0.953125 4.203125 -1.34375 4.203125 -2.234375 L 4.203125 -13.285156 C 4.203125 -14.089844 4.507812 -14.242188 5.65625 -14.242188 C 10.253906 -14.242188 12.851562 -11.011719 12.851562 -6.804688 C 12.851562 -3.859375 11.683594 -0.953125 6.828125 -0.953125 Z M 6.828125 -0.953125 "/></g></g></g><g fill="#190e00" fill-opacity="1"><g transform="translate(213.022114, 255.527033)"><g><path d="M 2.210938 -3.144531 C 2.210938 -0.671875 0.910156 -1.234375 0.910156 -0.433594 C 0.910156 -0.109375 1.257812 0 1.992188 0 L 4.378906 0 C 5.136719 0 5.441406 -0.109375 5.441406 -0.433594 C 5.441406 -1.234375 4.203125 -0.671875 4.203125 -3.144531 L 4.203125 -12.03125 C 4.203125 -14.5 5.484375 -13.9375 5.484375 -14.738281 C 5.484375 -15.0625 5.136719 -15.171875 4.421875 -15.171875 L 2.039062 -15.171875 C 1.257812 -15.171875 0.953125 -15.0625 0.953125 -14.738281 C 0.953125 -13.9375 2.210938 -14.5 2.210938 -12.03125 Z M 2.210938 -3.144531 "/></g></g></g><g fill="#190e00" fill-opacity="1"><g transform="translate(224.876681, 255.527033)"><g><path d="M 7.910156 0.214844 C 12.65625 0.214844 15.867188 -3.359375 15.867188 -8.128906 C 15.867188 -12.269531 13.136719 -15.390625 8.820312 -15.390625 C 4.160156 -15.390625 0.84375 -11.640625 0.84375 -6.980469 C 0.84375 -2.816406 3.640625 0.214844 7.910156 0.214844 Z M 8.84375 -1.039062 C 5.160156 -1.039062 2.839844 -4.335938 2.839844 -8.582031 C 2.839844 -11.3125 4.636719 -14.242188 8 -14.242188 C 11.617188 -14.242188 13.851562 -10.816406 13.851562 -6.894531 C 13.851562 -3.859375 12.160156 -1.039062 8.84375 -1.039062 Z M 8.84375 -1.039062 "/></g></g></g><g clip-path="url(#d6b1750bfa)"><g clip-path="url(#6d0c4103ec)"><g clip-path="url(#a745842b76)"><path fill="#190e00" d="M 216.101562 146.042969 C 215.882812 145.832031 215.605469 145.675781 215.347656 145.507812 C 214.398438 144.882812 213.347656 144.433594 212.390625 143.839844 C 210.925781 142.917969 209.332031 142.347656 207.683594 141.980469 C 206.03125 141.613281 204.3125 141.476562 202.640625 142.039062 C 201.230469 142.519531 199.804688 142.972656 198.414062 143.511719 C 197.160156 143.996094 195.996094 144.640625 195.035156 145.625 C 194.523438 146.152344 193.957031 146.609375 193.335938 146.992188 C 193.457031 146.277344 193.601562 145.734375 193.644531 145.1875 C 193.75 143.867188 194.320312 142.832031 195.390625 142.0625 C 195.597656 141.910156 195.773438 141.714844 195.96875 141.550781 C 196.644531 140.972656 197.1875 140.292969 197.597656 139.507812 C 197.796875 139.148438 197.988281 138.78125 198.203125 138.429688 C 198.898438 137.3125 199.269531 136.097656 199.324219 134.78125 C 199.363281 133.699219 199.347656 132.617188 199.347656 131.535156 C 199.347656 131.28125 199.359375 131.007812 199.289062 130.769531 C 198.753906 128.949219 197.824219 127.363281 196.363281 126.132812 C 195.808594 125.667969 195.160156 125.34375 194.40625 125.285156 C 193.996094 125.253906 193.585938 125.144531 193.179688 125.144531 C 191.34375 125.148438 189.625 124.664062 187.914062 124.058594 C 186.460938 123.546875 184.964844 123.097656 183.382812 123.46875 C 182.882812 123.582031 182.382812 123.683594 181.878906 123.789062 C 181.527344 123.652344 181.347656 123.320312 181.097656 123.070312 C 180.019531 122.011719 178.773438 121.425781 177.214844 121.484375 C 176.085938 121.527344 174.953125 121.40625 173.820312 121.363281 C 172.484375 121.316406 171.140625 121.1875 169.804688 121.25 C 167.917969 121.335938 166.652344 122.378906 165.996094 124.144531 C 165.835938 124.574219 165.746094 125.035156 165.621094 125.480469 C 165.367188 126.375 164.929688 127.164062 164.367188 127.933594 C 163.417969 127.53125 162.5 127.433594 161.566406 127.5 C 160.433594 127.578125 159.410156 127.976562 158.757812 128.910156 C 158 129.996094 157.210938 131.070312 156.804688 132.382812 C 156.226562 134.25 155.589844 136.105469 154.566406 137.792969 C 153.898438 138.894531 153.265625 140.011719 152.59375 141.109375 C 152.113281 141.886719 151.945312 142.730469 152.003906 143.625 C 152.03125 144.089844 152.089844 144.546875 152.179688 145.003906 C 152.332031 145.722656 152.3125 146.433594 152.117188 147.144531 C 152.050781 147.394531 152.003906 147.644531 151.96875 147.902344 C 151.539062 150.476562 152.125 151.769531 154.328125 153.0625 C 154.183594 153.921875 153.59375 154.503906 152.992188 155.054688 C 152.300781 155.691406 151.78125 156.445312 151.316406 157.257812 C 151.132812 157.578125 150.976562 157.910156 151 158.273438 C 151.105469 159.972656 151.257812 161.660156 151.859375 163.277344 C 152.53125 165.089844 153.550781 166.683594 154.917969 168.054688 C 155.863281 169.011719 156.96875 169.570312 158.253906 169.832031 C 158.90625 169.964844 159.582031 170.007812 160.242188 170.105469 C 161.070312 170.222656 161.882812 170.230469 162.691406 169.984375 C 163.242188 169.808594 163.800781 169.746094 164.375 169.792969 C 165.292969 169.878906 166.050781 170.191406 166.566406 171.027344 C 167.023438 171.773438 167.476562 172.519531 167.785156 173.34375 C 167.992188 173.898438 168.355469 174.296875 168.871094 174.597656 C 169.984375 175.257812 171.09375 175.894531 172.453125 175.839844 C 172.539062 175.835938 172.628906 175.921875 172.71875 175.964844 C 172.75 176.0625 172.8125 176.160156 172.804688 176.253906 C 172.679688 177.484375 172.53125 178.710938 172.414062 179.941406 C 172.289062 181.222656 172.253906 182.496094 172.800781 183.726562 C 173.371094 183.824219 173.859375 183.667969 174.273438 183.265625 C 175.691406 181.949219 177.390625 181.101562 179.109375 180.269531 C 180.40625 179.640625 181.71875 179.042969 182.914062 178.222656 C 183.632812 177.726562 184.375 177.269531 185.199219 176.941406 C 185.863281 176.671875 186.515625 176.332031 187 175.777344 C 187.75 174.921875 188.441406 174.027344 188.90625 172.976562 C 189.160156 172.414062 189.460938 171.871094 189.742188 171.320312 C 190.535156 169.765625 191.410156 168.253906 191.816406 166.519531 C 192.222656 164.785156 192.46875 163.078125 192.148438 161.320312 C 191.996094 160.460938 191.789062 159.609375 191.617188 158.753906 C 191.570312 158.523438 191.425781 158.28125 191.628906 158.042969 C 192.445312 158.90625 193.21875 159.804688 194.078125 160.617188 C 195.085938 161.566406 196.140625 162.472656 197.222656 163.339844 C 198.472656 164.332031 199.730469 165.320312 201.0625 166.199219 C 202.691406 167.269531 204.402344 168.21875 206.066406 169.234375 C 208.707031 170.84375 211.394531 172.359375 214.316406 173.414062 C 214.554688 173.503906 214.78125 173.632812 215.015625 173.738281 C 216.753906 174.511719 218.535156 175.183594 220.335938 175.796875 C 221.800781 176.296875 223.316406 176.589844 224.828125 176.90625 C 226.238281 177.203125 227.640625 177.535156 229.054688 177.824219 C 229.457031 177.894531 229.863281 177.917969 230.273438 177.886719 C 230.53125 177.878906 230.574219 177.65625 230.488281 177.425781 C 230.242188 177.203125 229.925781 177.203125 229.628906 177.191406 C 229.109375 177.167969 228.621094 177.027344 228.117188 176.9375 C 226.796875 176.699219 225.519531 176.289062 224.207031 176.050781 C 221.96875 175.640625 219.792969 175.058594 217.71875 174.105469 C 217.15625 173.847656 216.585938 173.617188 216.019531 173.378906 C 214.550781 172.753906 213.046875 172.203125 211.621094 171.496094 C 208.527344 169.964844 205.535156 168.25 202.644531 166.355469 C 199.675781 164.398438 196.8125 162.300781 194.242188 159.832031 C 193.582031 159.195312 193.023438 158.449219 192.21875 157.519531 C 193.285156 157.820312 194.078125 158.015625 194.855469 158.265625 C 197.128906 159 199.375 158.710938 201.488281 157.816406 C 202.804688 157.261719 204.171875 156.808594 205.460938 156.164062 C 206.148438 155.820312 206.875 155.554688 207.53125 155.144531 C 208.53125 154.519531 209.488281 153.808594 210.527344 153.253906 C 212.757812 152.0625 214.453125 150.28125 216.066406 148.402344 C 216.433594 147.976562 216.785156 147.523438 216.75 146.847656 C 216.550781 146.597656 216.351562 146.292969 216.101562 146.042969 Z M 183.632812 124.066406 C 185.011719 123.894531 186.328125 124.144531 187.566406 124.640625 C 189.300781 125.335938 191.105469 125.722656 192.972656 125.800781 C 193.4375 125.824219 193.898438 125.882812 194.355469 125.949219 C 194.988281 126.03125 195.542969 126.28125 196.027344 126.699219 C 197.410156 127.921875 198.375 129.417969 198.785156 131.242188 C 198.8125 131.339844 198.828125 131.441406 198.832031 131.542969 C 198.773438 132.828125 198.835938 134.136719 198.605469 135.390625 C 198.125 138.003906 196.835938 140.179688 194.503906 141.941406 C 194.433594 140.960938 194.378906 140.25 194.324219 139.535156 C 194.214844 137.976562 193.550781 136.625 192.5 135.539062 C 191.285156 134.285156 189.933594 133.175781 188.367188 132.34375 C 187.09375 131.671875 185.828125 131.570312 184.519531 132.164062 C 184.050781 132.375 183.601562 132.632812 183.132812 132.839844 C 182.808594 132.980469 182.460938 133.070312 182.191406 133.15625 C 181.8125 133.003906 181.824219 132.730469 181.792969 132.480469 C 181.527344 130.484375 181.472656 128.484375 181.46875 126.46875 C 181.460938 125.234375 182.539062 124.199219 183.632812 124.066406 Z M 165.089844 128.074219 C 165.703125 127.113281 166.199219 126.113281 166.414062 124.96875 C 166.640625 123.738281 167.367188 122.832031 168.488281 122.25 C 168.808594 122.082031 169.148438 121.972656 169.503906 121.929688 C 170.742188 121.765625 171.972656 121.855469 173.203125 121.957031 C 174.636719 122.074219 176.070312 122.167969 177.515625 122.183594 C 179.261719 122.199219 180.496094 123.097656 181.285156 124.628906 C 181.117188 125.027344 180.921875 125.34375 180.863281 125.683594 C 180.792969 126.082031 180.859375 126.503906 180.835938 126.917969 C 180.738281 128.828125 181.074219 130.707031 181.207031 132.601562 L 181.261719 133.441406 C 180.175781 134.144531 179.039062 134.65625 177.789062 134.734375 C 177.378906 134.464844 177.5625 134.128906 177.554688 133.851562 C 177.542969 132.878906 176.355469 132.195312 175.542969 132.921875 C 175.429688 133.027344 175.3125 133.125 175.1875 133.21875 C 175.109375 133.265625 175.003906 133.269531 174.878906 133.304688 C 174.578125 132.988281 174.273438 132.652344 173.953125 132.335938 C 173.722656 132.109375 173.449219 131.980469 173.128906 131.945312 C 172.527344 131.867188 172.078125 132.144531 172.027344 132.730469 C 171.988281 133.183594 172.046875 133.644531 172.066406 134.125 C 171.835938 134.445312 171.410156 134.238281 171.113281 134.453125 C 170.792969 134.683594 170.839844 135.105469 170.542969 135.375 C 170.160156 135.136719 169.773438 134.890625 169.382812 134.648438 C 169.105469 134.476562 168.8125 134.429688 168.496094 134.511719 C 167.773438 134.664062 167.398438 135.167969 167.613281 135.863281 C 167.769531 136.363281 168.039062 136.8125 167.523438 137.246094 C 167.390625 138.394531 167.480469 138.867188 168.402344 139.304688 C 168.722656 139.460938 169.058594 139.605469 169.339844 139.820312 C 169.496094 139.9375 169.488281 140.1875 169.304688 140.367188 C 168.898438 140.429688 168.675781 140.085938 168.367188 139.933594 C 168.09375 139.800781 167.855469 139.589844 167.582031 139.445312 C 166.59375 138.933594 166.03125 139.039062 165.265625 139.855469 C 165.164062 139.960938 165.082031 140.085938 164.996094 140.195312 C 164.59375 140.199219 164.460938 139.890625 164.324219 139.628906 C 163.582031 138.207031 163.050781 136.707031 162.730469 135.132812 C 162.363281 133.34375 162.679688 131.65625 163.71875 130.125 C 164.179688 129.441406 164.648438 128.765625 165.089844 128.074219 Z M 175.765625 133.6875 C 175.910156 133.386719 176.261719 133.226562 176.515625 133.34375 C 176.769531 133.460938 176.863281 133.710938 176.816406 133.972656 C 176.75 134.316406 176.640625 134.652344 176.546875 134.996094 C 176.144531 135.167969 175.902344 135.21875 175.632812 135.128906 C 175.417969 134.628906 175.542969 134.152344 175.765625 133.6875 Z M 174.898438 135.496094 C 173.929688 135.152344 173.207031 134.792969 172.804688 133.957031 C 172.597656 133.527344 172.570312 133.539062 172.789062 132.472656 C 174.375 132.917969 174.4375 134.226562 174.898438 135.496094 Z M 172.4375 135.703125 C 172.660156 136.207031 172.660156 136.207031 172.09375 136.753906 C 171.453125 136.296875 171.25 135.78125 171.460938 135.125 C 172.171875 135.097656 172.171875 135.097656 172.4375 135.703125 Z M 170.777344 137.625 C 169.519531 137.472656 168.792969 136.84375 168.292969 135.90625 C 168.230469 135.789062 168.210938 135.664062 168.238281 135.53125 C 168.261719 135.402344 168.328125 135.292969 168.429688 135.207031 C 168.605469 135.046875 168.792969 135.03125 168.996094 135.160156 C 169.898438 135.675781 170.6875 136.285156 170.78125 137.621094 Z M 169.566406 138.90625 C 168.996094 139.097656 168.582031 138.828125 168.234375 138.429688 C 168.058594 138.222656 168.0625 137.953125 168.175781 137.707031 C 168.253906 137.53125 168.65625 137.503906 168.875 137.628906 C 169.363281 137.898438 169.648438 138.28125 169.570312 138.902344 Z M 167.136719 141.464844 C 166.753906 141.492188 166.445312 141.324219 166.160156 141.097656 C 165.839844 140.84375 165.738281 140.472656 165.894531 140.15625 C 166.054688 139.839844 166.40625 139.691406 166.796875 139.765625 C 167.441406 139.882812 167.828125 140.371094 168.363281 140.742188 C 168.058594 141.417969 167.589844 141.425781 167.136719 141.464844 Z M 168.972656 143.695312 C 168.359375 143.777344 167.867188 143.671875 167.382812 143.511719 C 167.121094 143.429688 166.945312 143.242188 166.964844 142.960938 C 166.984375 142.699219 167.097656 142.46875 167.386719 142.394531 C 167.53125 142.359375 167.679688 142.332031 167.832031 142.316406 C 168.890625 142.210938 169.027344 142.363281 168.972656 143.691406 Z M 152.679688 150.289062 C 152.433594 149.234375 152.546875 148.230469 152.796875 147.238281 C 152.996094 146.480469 153.011719 145.71875 152.84375 144.953125 C 152.730469 144.402344 152.707031 143.828125 152.6875 143.265625 C 152.664062 142.585938 152.789062 141.945312 153.183594 141.355469 C 153.609375 140.714844 153.929688 140.007812 154.363281 139.363281 C 155.65625 137.421875 156.625 135.328125 157.269531 133.085938 C 157.625 131.875 158.242188 130.808594 158.878906 129.757812 C 159.816406 128.195312 161.746094 127.648438 163.464844 128.351562 C 163.589844 128.402344 163.664062 128.570312 163.761719 128.679688 C 163.683594 129.179688 163.332031 129.507812 163.089844 129.894531 C 161.863281 131.855469 161.679688 133.953125 162.324219 136.132812 C 162.667969 137.320312 163.082031 138.480469 163.558594 139.621094 C 164.074219 140.84375 164.917969 141.78125 166.300781 141.992188 C 166.382812 142.539062 166.347656 142.988281 166.179688 143.441406 C 165.417969 143.570312 164.660156 143.707031 163.898438 143.8125 C 162.613281 143.988281 161.390625 144.378906 160.183594 144.824219 C 158.664062 145.382812 157.535156 146.40625 156.777344 147.8125 C 156.191406 148.894531 155.617188 149.992188 155.289062 151.199219 C 155.195312 151.535156 155 151.839844 154.835938 152.191406 C 153.652344 152.019531 152.953125 151.476562 152.679688 150.289062 Z M 164.824219 169.09375 C 162.96875 169.34375 161.253906 169.75 159.417969 169.390625 C 158.121094 169.140625 156.867188 168.890625 155.894531 167.996094 C 154.867188 167.0625 153.921875 166.042969 153.261719 164.789062 C 152.335938 163.03125 151.875 161.140625 151.625 159.1875 C 151.542969 158.554688 151.667969 157.960938 152 157.414062 C 152.417969 156.699219 152.832031 156.011719 153.441406 155.433594 C 154.546875 154.378906 155.324219 153.121094 155.769531 151.660156 C 156.089844 150.625 156.527344 149.648438 156.972656 148.664062 C 157.714844 147.019531 158.941406 145.921875 160.617188 145.316406 C 162.515625 144.628906 164.496094 144.296875 166.511719 144.179688 C 167.40625 144.132812 168.238281 144.386719 169.246094 144.722656 C 169.785156 146.816406 170.941406 148.609375 171.582031 150.582031 C 171.492188 150.714844 171.449219 150.851562 171.375 150.867188 C 170.007812 151.222656 168.851562 152.015625 167.648438 152.691406 C 166.707031 153.222656 165.851562 153.898438 164.90625 154.421875 C 163.71875 155.082031 163.085938 156.109375 162.898438 157.375 C 162.480469 160.179688 162.191406 162.992188 162.742188 165.820312 C 162.90625 166.664062 163.410156 167.304688 163.90625 167.960938 C 164.175781 168.3125 164.625 168.523438 164.824219 169.09375 Z M 171.167969 174.988281 C 169.929688 174.675781 168.804688 174.027344 168.253906 172.679688 C 167.445312 170.699219 166.195312 169.027344 164.585938 167.597656 C 163.902344 166.992188 163.484375 166.242188 163.324219 165.34375 C 163.023438 163.664062 162.835938 161.984375 163.210938 160.285156 C 163.351562 159.632812 163.332031 158.949219 163.445312 158.289062 C 163.535156 157.679688 163.679688 157.078125 163.871094 156.492188 C 164.054688 155.953125 164.367188 155.484375 164.886719 155.171875 C 165.941406 154.53125 166.976562 153.859375 168.035156 153.222656 C 168.609375 152.878906 169.21875 152.597656 169.800781 152.265625 C 170.4375 151.90625 171.097656 151.671875 171.796875 151.695312 C 172.21875 152 172.210938 152.449219 172.339844 152.828125 C 172.625 153.65625 172.816406 154.519531 173.179688 155.308594 C 173.851562 156.773438 174.925781 157.855469 176.546875 158.246094 C 178.660156 158.742188 180.796875 159.074219 182.957031 159.238281 C 183.804688 159.308594 184.585938 159.042969 185.390625 158.871094 C 185.886719 158.765625 186.347656 158.46875 187.074219 158.589844 C 185.429688 160.628906 184.230469 162.796875 182.828125 164.828125 C 182.363281 165.503906 182.007812 166.253906 181.613281 166.976562 C 180.902344 168.28125 180.191406 169.601562 179.261719 170.773438 C 178.769531 171.375 178.359375 172.023438 178.03125 172.726562 C 177.835938 173.148438 177.597656 173.542969 177.316406 173.914062 C 177.035156 174.308594 176.664062 174.570312 176.199219 174.707031 C 174.539062 175.171875 172.832031 175.40625 171.164062 174.992188 Z M 190.792969 158.648438 C 191.972656 161.789062 191.859375 164.90625 190.683594 168.015625 C 190.554688 168.351562 190.386719 168.671875 190.226562 168.992188 C 189.628906 170.191406 189.035156 171.390625 188.421875 172.578125 C 187.546875 174.261719 186.425781 175.691406 184.589844 176.4375 C 184.066406 176.660156 183.574219 176.945312 183.121094 177.289062 C 181.820312 178.230469 180.40625 178.964844 178.933594 179.59375 C 177.21875 180.324219 175.660156 181.316406 174.195312 182.460938 C 173.957031 182.648438 173.695312 182.8125 173.40625 183.015625 C 173.285156 182.875 173.125 182.777344 173.105469 182.65625 C 172.796875 180.4375 173.054688 178.253906 173.457031 176.085938 C 174.03125 175.78125 174.578125 175.660156 175.128906 175.554688 C 175.535156 175.480469 175.945312 175.414062 176.339844 175.308594 C 177.289062 175.046875 178.015625 174.492188 178.355469 173.550781 C 178.621094 172.8125 179.019531 172.167969 179.5 171.554688 C 180.675781 170.046875 181.605469 168.386719 182.480469 166.699219 C 182.863281 165.96875 183.28125 165.261719 183.738281 164.574219 C 184.664062 163.152344 185.621094 161.746094 186.570312 160.335938 C 187.457031 159.011719 188.628906 158.082031 190.144531 157.714844 C 190.570312 157.964844 190.664062 158.316406 190.789062 158.652344 Z M 190.40625 155.988281 C 190.074219 156.769531 189.476562 157.242188 188.726562 157.457031 C 187.242188 157.882812 185.738281 158.238281 184.226562 158.578125 C 183.835938 158.664062 183.40625 158.628906 182.996094 158.609375 C 180.878906 158.515625 178.820312 158.015625 176.742188 157.664062 C 175.8125 157.507812 175.179688 156.921875 174.574219 156.25 C 173.867188 155.542969 173.523438 154.597656 173.292969 153.664062 C 172.71875 151.351562 171.851562 149.167969 170.824219 147.023438 C 170.039062 145.390625 169.617188 143.636719 169.796875 141.78125 C 169.898438 140.773438 170.261719 139.921875 170.839844 139.089844 C 171.894531 137.558594 173.367188 136.714844 175.082031 136.203125 C 175.625 136.039062 176.164062 135.847656 176.714844 135.738281 C 179.257812 135.214844 181.640625 134.261719 183.957031 133.117188 C 184.371094 132.914062 184.816406 132.773438 185.246094 132.609375 C 186.074219 132.296875 186.90625 132.398438 187.65625 132.761719 C 189.34375 133.578125 190.816406 134.683594 192.070312 136.078125 C 193.488281 137.660156 193.925781 139.628906 193.644531 141.707031 C 193.433594 143.1875 193.132812 144.648438 192.738281 146.09375 C 192.199219 148.085938 191.796875 150.109375 191.535156 152.15625 C 191.363281 153.511719 190.925781 154.75 190.402344 155.988281 Z M 215.613281 147.894531 C 214.363281 149.390625 213.144531 150.941406 211.394531 151.898438 C 210.035156 152.636719 208.910156 153.726562 207.503906 154.386719 C 206.292969 154.960938 205.136719 155.640625 203.902344 156.136719 C 202.808594 156.578125 201.738281 157.128906 200.625 157.472656 C 198.753906 158.046875 196.824219 158.328125 194.882812 157.5625 C 193.832031 157.152344 192.738281 156.855469 191.664062 156.503906 C 191.472656 156.441406 191.265625 156.394531 191.125 156.105469 C 192.355469 153.78125 192.199219 151.078125 192.878906 148.4375 C 193.695312 148.050781 194.304688 147.269531 194.964844 146.574219 C 196.363281 145.113281 198.089844 144.261719 199.941406 143.589844 C 200.851562 143.257812 201.789062 142.992188 202.703125 142.664062 C 204.429688 142.042969 206.152344 142.285156 207.871094 142.667969 C 210.058594 143.160156 211.949219 144.34375 213.894531 145.390625 C 214.390625 145.65625 214.878906 145.941406 215.351562 146.257812 C 216.09375 146.75 216.1875 147.207031 215.613281 147.894531 Z M 215.613281 147.894531 " fill-opacity="1" fill-rule="nonzero"/></g></g></g></svg>