<svg xmlns="http://www.w3.org/2000/svg" xmlns:xlink="http://www.w3.org/1999/xlink" width="500" zoomAndPan="magnify" viewBox="0 0 375 374.999991" height="500" preserveAspectRatio="xMidYMid meet" version="1.0"><defs><g/><clipPath id="b771fa2de8"><path d="M 69 40 L 315 40 L 315 233 L 69 233 Z M 69 40 " clip-rule="nonzero"/></clipPath><clipPath id="4a767e2f60"><path d="M 26.253906 121.46875 L 167.261719 -0.972656 L 337.40625 194.964844 L 196.398438 317.40625 Z M 26.253906 121.46875 " clip-rule="nonzero"/></clipPath><clipPath id="712fd896a7"><path d="M 26.253906 121.46875 L 167.261719 -0.972656 L 337.40625 194.964844 L 196.398438 317.40625 Z M 26.253906 121.46875 " clip-rule="nonzero"/></clipPath></defs><g fill="#190e00" fill-opacity="1"><g transform="translate(42.510754, 288.647091)"><g><path d="M 12.300781 -7.804688 C 14.738281 -8.644531 16.121094 -10.351562 16.121094 -12.976562 C 16.121094 -16.121094 13.4375 -18.964844 7.449219 -18.964844 L 2.492188 -18.964844 C 1.570312 -18.964844 1.136719 -18.910156 1.136719 -18.421875 C 1.136719 -17.421875 2.761719 -18.289062 2.761719 -15.253906 L 2.761719 -3.929688 C 2.761719 -0.839844 1.136719 -1.542969 1.136719 -0.542969 C 1.136719 -0.136719 1.570312 0 2.492188 0 L 5.472656 0 C 6.421875 0 6.800781 -0.136719 6.800781 -0.542969 C 6.800781 -1.542969 5.257812 -0.839844 5.257812 -3.929688 L 5.257812 -6.9375 C 5.257812 -7.882812 5.988281 -7.804688 7.75 -7.558594 C 9.457031 -7.34375 9.890625 -7.207031 10.402344 -6.285156 L 12.21875 -2.953125 C 13.113281 -1.355469 11.757812 -1.328125 11.757812 -0.625 C 11.757812 -0.136719 12.21875 0 13.085938 0 L 16.011719 0 C 16.691406 0 17.070312 -0.136719 17.070312 -0.542969 C 17.070312 -1.410156 15.957031 -1.058594 14.984375 -2.84375 Z M 9.265625 -8.671875 C 8.019531 -8.695312 5.257812 -8.941406 5.257812 -10.078125 L 5.257812 -17.042969 C 5.257812 -17.609375 5.582031 -17.773438 7.398438 -17.746094 C 11.296875 -17.71875 13.410156 -15.363281 13.410156 -12.625 C 13.410156 -9.996094 11.730469 -8.617188 9.265625 -8.671875 Z M 9.265625 -8.671875 "/></g></g></g><g fill="#190e00" fill-opacity="1"><g transform="translate(67.079544, 288.647091)"><g><path d="M 4.308594 -4.902344 C 4.605469 -5.714844 4.605469 -5.714844 8.722656 -5.714844 C 12.625 -5.714844 12.625 -5.714844 12.921875 -4.929688 L 13.601562 -3.222656 C 14.441406 -1.109375 12.761719 -1.410156 12.761719 -0.515625 C 12.761719 -0.136719 13.195312 0 13.84375 0 L 17.015625 0 C 17.964844 0 18.34375 -0.136719 18.34375 -0.597656 C 18.34375 -1.410156 17.230469 -1.003906 16.335938 -3.222656 L 10.324219 -18.476562 C 10.214844 -18.804688 9.96875 -18.964844 9.617188 -18.964844 L 7.152344 -18.964844 C 6.558594 -18.964844 6.394531 -18.75 6.394531 -18.398438 C 6.394531 -17.53125 7.9375 -17.71875 7.34375 -16.230469 L 2.222656 -3.195312 C 1.328125 -0.921875 -0.0273438 -1.410156 -0.0273438 -0.515625 C -0.0273438 -0.109375 0.433594 0 1.109375 0 L 3.304688 0 C 3.875 0 4.308594 -0.109375 4.308594 -0.570312 C 4.308594 -1.382812 2.789062 -1.003906 3.628906 -3.195312 Z M 8.75 -6.882812 C 5.066406 -6.882812 5.066406 -6.882812 5.308594 -7.503906 L 8.589844 -15.984375 L 11.894531 -7.585938 C 12.164062 -6.882812 12.164062 -6.882812 8.75 -6.882812 Z M 8.75 -6.882812 "/></g></g></g><g fill="#190e00" fill-opacity="1"><g transform="translate(92.487957, 288.647091)"><g><path d="M 2.492188 -18.964844 C 1.570312 -18.964844 1.136719 -18.910156 1.136719 -18.421875 C 1.136719 -17.421875 2.761719 -18.289062 2.761719 -15.253906 L 2.761719 -3.710938 C 2.761719 -0.675781 1.136719 -1.542969 1.136719 -0.542969 C 1.136719 -0.0546875 1.570312 0 2.492188 0 L 8.832031 0 C 16.011719 0 18.75 -4.742188 18.75 -9.78125 C 18.75 -14.035156 15.824219 -18.964844 8.074219 -18.964844 Z M 8.535156 -1.191406 C 5.769531 -1.191406 5.257812 -1.679688 5.257812 -2.789062 L 5.257812 -16.609375 C 5.257812 -17.609375 5.636719 -17.800781 7.070312 -17.800781 C 12.816406 -17.800781 16.066406 -13.761719 16.066406 -8.507812 C 16.066406 -4.824219 14.605469 -1.191406 8.535156 -1.191406 Z M 8.535156 -1.191406 "/></g></g></g><g fill="#190e00" fill-opacity="1"><g transform="translate(119.14229, 288.647091)"><g><path d="M 2.761719 -3.929688 C 2.761719 -0.839844 1.136719 -1.542969 1.136719 -0.542969 C 1.136719 -0.136719 1.570312 0 2.492188 0 L 5.472656 0 C 6.421875 0 6.800781 -0.136719 6.800781 -0.542969 C 6.800781 -1.542969 5.257812 -0.839844 5.257812 -3.929688 L 5.257812 -15.035156 C 5.257812 -18.125 6.855469 -17.421875 6.855469 -18.421875 C 6.855469 -18.832031 6.421875 -18.964844 5.527344 -18.964844 L 2.546875 -18.964844 C 1.570312 -18.964844 1.191406 -18.832031 1.191406 -18.421875 C 1.191406 -17.421875 2.761719 -18.125 2.761719 -15.035156 Z M 2.761719 -3.929688 "/></g></g></g><g fill="#190e00" fill-opacity="1"><g transform="translate(133.9605, 288.647091)"><g><path d="M 4.308594 -4.902344 C 4.605469 -5.714844 4.605469 -5.714844 8.722656 -5.714844 C 12.625 -5.714844 12.625 -5.714844 12.921875 -4.929688 L 13.601562 -3.222656 C 14.441406 -1.109375 12.761719 -1.410156 12.761719 -0.515625 C 12.761719 -0.136719 13.195312 0 13.84375 0 L 17.015625 0 C 17.964844 0 18.34375 -0.136719 18.34375 -0.597656 C 18.34375 -1.410156 17.230469 -1.003906 16.335938 -3.222656 L 10.324219 -18.476562 C 10.214844 -18.804688 9.96875 -18.964844 9.617188 -18.964844 L 7.152344 -18.964844 C 6.558594 -18.964844 6.394531 -18.75 6.394531 -18.398438 C 6.394531 -17.53125 7.9375 -17.71875 7.34375 -16.230469 L 2.222656 -3.195312 C 1.328125 -0.921875 -0.0273438 -1.410156 -0.0273438 -0.515625 C -0.0273438 -0.109375 0.433594 0 1.109375 0 L 3.304688 0 C 3.875 0 4.308594 -0.109375 4.308594 -0.570312 C 4.308594 -1.382812 2.789062 -1.003906 3.628906 -3.195312 Z M 8.75 -6.882812 C 5.066406 -6.882812 5.066406 -6.882812 5.308594 -7.503906 L 8.589844 -15.984375 L 11.894531 -7.585938 C 12.164062 -6.882812 12.164062 -6.882812 8.75 -6.882812 Z M 8.75 -6.882812 "/></g></g></g><g fill="#190e00" fill-opacity="1"><g transform="translate(159.368914, 288.647091)"><g><path d="M 16.390625 -18.964844 C 15.550781 -18.964844 15.171875 -18.855469 15.171875 -18.398438 C 15.171875 -17.503906 16.609375 -17.882812 16.636719 -15.714844 L 16.664062 -5.175781 L 4.445312 -18.53125 C 4.171875 -18.832031 3.957031 -18.964844 3.601562 -18.964844 L 2.382812 -18.964844 C 1.464844 -18.964844 1.03125 -18.910156 1.03125 -18.421875 C 1.03125 -17.421875 2.65625 -18.289062 2.65625 -15.253906 L 2.65625 -3.25 C 2.65625 -1.082031 1.21875 -1.464844 1.21875 -0.570312 C 1.21875 -0.136719 1.625 0 2.382812 0 L 4.226562 0 C 5.066406 0 5.445312 -0.109375 5.445312 -0.570312 C 5.445312 -1.464844 3.984375 -1.082031 3.984375 -3.25 L 3.929688 -15.390625 L 15.984375 -2.328125 C 16.472656 -1.761719 16.691406 -1.21875 16.691406 -0.648438 C 16.691406 -0.296875 16.90625 0 17.285156 0 C 17.71875 0 17.964844 -0.214844 17.964844 -0.839844 L 17.964844 -15.714844 C 17.964844 -17.882812 19.398438 -17.503906 19.398438 -18.398438 C 19.398438 -18.855469 18.992188 -18.964844 18.207031 -18.964844 Z M 16.390625 -18.964844 "/></g></g></g><g fill="#190e00" fill-opacity="1"><g transform="translate(186.592017, 288.647091)"><g><path d="M 9.890625 -16.417969 C 9.890625 -17.367188 10.269531 -17.773438 11.324219 -17.773438 C 13.4375 -17.773438 13.84375 -16.960938 14.738281 -15.28125 C 15.144531 -14.496094 15.390625 -14.222656 15.742188 -14.222656 C 16.257812 -14.222656 16.308594 -14.65625 16.285156 -15.144531 C 16.257812 -16.445312 16.148438 -17.285156 15.929688 -18.042969 C 15.769531 -18.695312 15.46875 -18.992188 13.738281 -18.992188 L 3.523438 -18.964844 C 1.789062 -18.964844 1.488281 -18.667969 1.328125 -18.015625 C 1.109375 -17.257812 1.003906 -16.417969 0.976562 -15.117188 C 0.949219 -14.628906 1.003906 -14.195312 1.515625 -14.195312 C 1.871094 -14.195312 2.113281 -14.496094 2.519531 -15.28125 C 3.414062 -16.933594 3.820312 -17.746094 5.933594 -17.746094 C 7.015625 -17.746094 7.371094 -17.339844 7.371094 -16.390625 L 7.371094 -3.929688 C 7.371094 -0.839844 5.769531 -1.542969 5.769531 -0.542969 C 5.769531 -0.136719 6.203125 0 7.097656 0 L 10.105469 0 C 11.054688 0 11.433594 -0.136719 11.433594 -0.542969 C 11.433594 -1.542969 9.890625 -0.839844 9.890625 -3.929688 Z M 9.890625 -16.417969 "/></g></g></g><g fill="#190e00" fill-opacity="1"><g transform="translate(210.673274, 288.647091)"><g/></g></g><g fill="#190e00" fill-opacity="1"><g transform="translate(222.918409, 288.647091)"><g><path d="M 12.300781 -7.804688 C 14.738281 -8.644531 16.121094 -10.351562 16.121094 -12.976562 C 16.121094 -16.121094 13.4375 -18.964844 7.449219 -18.964844 L 2.492188 -18.964844 C 1.570312 -18.964844 1.136719 -18.910156 1.136719 -18.421875 C 1.136719 -17.421875 2.761719 -18.289062 2.761719 -15.253906 L 2.761719 -3.929688 C 2.761719 -0.839844 1.136719 -1.542969 1.136719 -0.542969 C 1.136719 -0.136719 1.570312 0 2.492188 0 L 5.472656 0 C 6.421875 0 6.800781 -0.136719 6.800781 -0.542969 C 6.800781 -1.542969 5.257812 -0.839844 5.257812 -3.929688 L 5.257812 -6.9375 C 5.257812 -7.882812 5.988281 -7.804688 7.75 -7.558594 C 9.457031 -7.34375 9.890625 -7.207031 10.402344 -6.285156 L 12.21875 -2.953125 C 13.113281 -1.355469 11.757812 -1.328125 11.757812 -0.625 C 11.757812 -0.136719 12.21875 0 13.085938 0 L 16.011719 0 C 16.691406 0 17.070312 -0.136719 17.070312 -0.542969 C 17.070312 -1.410156 15.957031 -1.058594 14.984375 -2.84375 Z M 9.265625 -8.671875 C 8.019531 -8.695312 5.257812 -8.941406 5.257812 -10.078125 L 5.257812 -17.042969 C 5.257812 -17.609375 5.582031 -17.773438 7.398438 -17.746094 C 11.296875 -17.71875 13.410156 -15.363281 13.410156 -12.625 C 13.410156 -9.996094 11.730469 -8.617188 9.265625 -8.671875 Z M 9.265625 -8.671875 "/></g></g></g><g fill="#190e00" fill-opacity="1"><g transform="translate(247.487199, 288.647091)"><g><path d="M 2.761719 -3.929688 C 2.761719 -0.839844 1.136719 -1.542969 1.136719 -0.542969 C 1.136719 -0.136719 1.570312 0 2.492188 0 L 5.472656 0 C 6.421875 0 6.800781 -0.136719 6.800781 -0.542969 C 6.800781 -1.542969 5.257812 -0.839844 5.257812 -3.929688 L 5.257812 -15.035156 C 5.257812 -18.125 6.855469 -17.421875 6.855469 -18.421875 C 6.855469 -18.832031 6.421875 -18.964844 5.527344 -18.964844 L 2.546875 -18.964844 C 1.570312 -18.964844 1.191406 -18.832031 1.191406 -18.421875 C 1.191406 -17.421875 2.761719 -18.125 2.761719 -15.035156 Z M 2.761719 -3.929688 "/></g></g></g><g fill="#190e00" fill-opacity="1"><g transform="translate(262.305408, 288.647091)"><g><path d="M 16.390625 -18.964844 C 15.550781 -18.964844 15.171875 -18.855469 15.171875 -18.398438 C 15.171875 -17.503906 16.609375 -17.882812 16.636719 -15.714844 L 16.664062 -5.175781 L 4.445312 -18.53125 C 4.171875 -18.832031 3.957031 -18.964844 3.601562 -18.964844 L 2.382812 -18.964844 C 1.464844 -18.964844 1.03125 -18.910156 1.03125 -18.421875 C 1.03125 -17.421875 2.65625 -18.289062 2.65625 -15.253906 L 2.65625 -3.25 C 2.65625 -1.082031 1.21875 -1.464844 1.21875 -0.570312 C 1.21875 -0.136719 1.625 0 2.382812 0 L 4.226562 0 C 5.066406 0 5.445312 -0.109375 5.445312 -0.570312 C 5.445312 -1.464844 3.984375 -1.082031 3.984375 -3.25 L 3.929688 -15.390625 L 15.984375 -2.328125 C 16.472656 -1.761719 16.691406 -1.21875 16.691406 -0.648438 C 16.691406 -0.296875 16.90625 0 17.285156 0 C 17.71875 0 17.964844 -0.214844 17.964844 -0.839844 L 17.964844 -15.714844 C 17.964844 -17.882812 19.398438 -17.503906 19.398438 -18.398438 C 19.398438 -18.855469 18.992188 -18.964844 18.207031 -18.964844 Z M 16.390625 -18.964844 "/></g></g></g><g fill="#190e00" fill-opacity="1"><g transform="translate(289.528512, 288.647091)"><g><path d="M 10.511719 0.242188 C 14.304688 0.191406 17.910156 -1.789062 17.910156 -3.496094 L 17.910156 -5.988281 C 17.910156 -8.722656 18.882812 -8.101562 18.882812 -9.050781 C 18.882812 -9.457031 18.449219 -9.589844 17.9375 -9.589844 L 13.898438 -9.589844 C 12.949219 -9.589844 12.570312 -9.457031 12.570312 -9.023438 C 12.570312 -7.9375 15.417969 -8.535156 15.417969 -5.988281 L 15.417969 -3.386719 C 15.417969 -2.085938 13.113281 -1.300781 11.136719 -1.300781 C 6.53125 -1.300781 3.628906 -5.257812 3.65625 -10.457031 C 3.65625 -14.171875 5.988281 -17.746094 9.996094 -17.746094 C 13.332031 -17.746094 14.605469 -15.875 15.769531 -14.25 C 16.230469 -13.628906 16.527344 -13.25 16.960938 -13.304688 C 17.394531 -13.355469 17.476562 -13.710938 17.394531 -14.25 C 17.125 -15.851562 16.878906 -16.960938 16.664062 -17.746094 C 16.417969 -18.882812 16.148438 -19.183594 15.660156 -19.183594 C 15.199219 -19.183594 15.035156 -18.855469 14.414062 -18.855469 C 13.65625 -18.855469 12.84375 -19.238281 10.972656 -19.238281 C 5.203125 -19.238281 1.058594 -14.765625 1.058594 -9.050781 C 1.058594 -3.765625 4.632812 0.324219 10.511719 0.242188 Z M 10.511719 0.242188 "/></g></g></g><g fill="#190e00" fill-opacity="1"><g transform="translate(316.724536, 288.647091)"><g><path d="M 7.992188 0.269531 C 11.570312 0.242188 14.847656 -1.871094 14.738281 -5.308594 C 14.628906 -8.535156 11.625 -9.535156 8.722656 -10.945312 C 6.148438 -12.21875 4.171875 -12.949219 4.171875 -15.035156 C 4.171875 -16.691406 5.335938 -17.910156 7.558594 -17.910156 C 9.96875 -17.910156 11.515625 -16.039062 12.382812 -14.65625 C 12.734375 -14.0625 13.058594 -13.789062 13.4375 -13.789062 C 13.871094 -13.789062 13.953125 -14.171875 13.871094 -14.683594 C 13.65625 -16.011719 13.410156 -16.960938 13.222656 -17.746094 C 12.949219 -18.882812 12.816406 -19.183594 12.300781 -19.183594 C 11.867188 -19.183594 11.703125 -18.882812 11.082031 -18.882812 C 10.324219 -18.882812 9.347656 -19.183594 8.15625 -19.183594 C 3.984375 -19.183594 1.789062 -16.824219 1.789062 -14.304688 C 1.789062 -11 4.742188 -9.890625 7.476562 -8.5625 C 9.808594 -7.449219 12.300781 -6.558594 12.164062 -4.28125 C 12.082031 -2.574219 10.890625 -1.03125 8.261719 -1.03125 C 5.09375 -1.058594 3.628906 -3.25 2.84375 -5.066406 C 2.519531 -5.714844 2.222656 -5.988281 1.84375 -5.988281 C 1.410156 -5.988281 1.328125 -5.582031 1.382812 -5.039062 C 1.570312 -3.277344 1.816406 -2.113281 1.976562 -1.246094 C 2.167969 -0.109375 2.4375 0.242188 2.953125 0.242188 C 3.386719 0.242188 3.550781 -0.0820312 4.171875 -0.0820312 C 4.984375 -0.0820312 5.933594 0.269531 7.992188 0.269531 Z M 7.992188 0.269531 "/></g></g></g><g fill="#190e00" fill-opacity="1"><g transform="translate(119.854499, 326.147088)"><g><path d="M 7.992188 0.269531 C 11.570312 0.242188 14.847656 -1.871094 14.738281 -5.308594 C 14.628906 -8.535156 11.625 -9.535156 8.722656 -10.945312 C 6.148438 -12.21875 4.171875 -12.949219 4.171875 -15.035156 C 4.171875 -16.691406 5.335938 -17.910156 7.558594 -17.910156 C 9.96875 -17.910156 11.515625 -16.039062 12.382812 -14.65625 C 12.734375 -14.0625 13.058594 -13.789062 13.4375 -13.789062 C 13.871094 -13.789062 13.953125 -14.171875 13.871094 -14.683594 C 13.65625 -16.011719 13.410156 -16.960938 13.222656 -17.746094 C 12.949219 -18.882812 12.816406 -19.183594 12.300781 -19.183594 C 11.867188 -19.183594 11.703125 -18.882812 11.082031 -18.882812 C 10.324219 -18.882812 9.347656 -19.183594 8.15625 -19.183594 C 3.984375 -19.183594 1.789062 -16.824219 1.789062 -14.304688 C 1.789062 -11 4.742188 -9.890625 7.476562 -8.5625 C 9.808594 -7.449219 12.300781 -6.558594 12.164062 -4.28125 C 12.082031 -2.574219 10.890625 -1.03125 8.261719 -1.03125 C 5.09375 -1.058594 3.628906 -3.25 2.84375 -5.066406 C 2.519531 -5.714844 2.222656 -5.988281 1.84375 -5.988281 C 1.410156 -5.988281 1.328125 -5.582031 1.382812 -5.039062 C 1.570312 -3.277344 1.816406 -2.113281 1.976562 -1.246094 C 2.167969 -0.109375 2.4375 0.242188 2.953125 0.242188 C 3.386719 0.242188 3.550781 -0.0820312 4.171875 -0.0820312 C 4.984375 -0.0820312 5.933594 0.269531 7.992188 0.269531 Z M 7.992188 0.269531 "/></g></g></g><g fill="#190e00" fill-opacity="1"><g transform="translate(142.418999, 326.147088)"><g><path d="M 9.890625 -16.417969 C 9.890625 -17.367188 10.269531 -17.773438 11.324219 -17.773438 C 13.4375 -17.773438 13.84375 -16.960938 14.738281 -15.28125 C 15.144531 -14.496094 15.390625 -14.222656 15.742188 -14.222656 C 16.257812 -14.222656 16.308594 -14.65625 16.285156 -15.144531 C 16.257812 -16.445312 16.148438 -17.285156 15.929688 -18.042969 C 15.769531 -18.695312 15.46875 -18.992188 13.738281 -18.992188 L 3.523438 -18.964844 C 1.789062 -18.964844 1.488281 -18.667969 1.328125 -18.015625 C 1.109375 -17.257812 1.003906 -16.417969 0.976562 -15.117188 C 0.949219 -14.628906 1.003906 -14.195312 1.515625 -14.195312 C 1.871094 -14.195312 2.113281 -14.496094 2.519531 -15.28125 C 3.414062 -16.933594 3.820312 -17.746094 5.933594 -17.746094 C 7.015625 -17.746094 7.371094 -17.339844 7.371094 -16.390625 L 7.371094 -3.929688 C 7.371094 -0.839844 5.769531 -1.542969 5.769531 -0.542969 C 5.769531 -0.136719 6.203125 0 7.097656 0 L 10.105469 0 C 11.054688 0 11.433594 -0.136719 11.433594 -0.542969 C 11.433594 -1.542969 9.890625 -0.839844 9.890625 -3.929688 Z M 9.890625 -16.417969 "/></g></g></g><g fill="#190e00" fill-opacity="1"><g transform="translate(166.500256, 326.147088)"><g><path d="M 9.96875 0.269531 C 14.929688 0.269531 17.148438 -2.953125 17.148438 -7.695312 L 17.148438 -15.714844 C 17.175781 -17.882812 18.613281 -17.503906 18.613281 -18.398438 C 18.613281 -18.855469 18.207031 -18.964844 17.421875 -18.964844 L 15.605469 -18.964844 C 14.765625 -18.964844 14.386719 -18.855469 14.386719 -18.398438 C 14.386719 -17.503906 15.824219 -17.882812 15.824219 -15.714844 L 15.875 -7.316406 C 15.875 -3.820312 14.035156 -1.164062 10.511719 -1.164062 C 7.179688 -1.164062 5.175781 -3.222656 5.175781 -7.070312 L 5.175781 -15.011719 C 5.175781 -18.070312 6.800781 -17.367188 6.800781 -18.371094 C 6.800781 -18.804688 6.367188 -18.910156 5.445312 -18.910156 L 2.464844 -18.910156 C 1.488281 -18.910156 1.109375 -18.804688 1.109375 -18.371094 C 1.109375 -17.367188 2.683594 -18.070312 2.683594 -15.011719 L 2.683594 -7.503906 C 2.683594 -2.65625 5.390625 0.269531 9.96875 0.269531 Z M 9.96875 0.269531 "/></g></g></g><g fill="#190e00" fill-opacity="1"><g transform="translate(192.748309, 326.147088)"><g><path d="M 2.492188 -18.964844 C 1.570312 -18.964844 1.136719 -18.910156 1.136719 -18.421875 C 1.136719 -17.421875 2.761719 -18.289062 2.761719 -15.253906 L 2.761719 -3.710938 C 2.761719 -0.675781 1.136719 -1.542969 1.136719 -0.542969 C 1.136719 -0.0546875 1.570312 0 2.492188 0 L 8.832031 0 C 16.011719 0 18.75 -4.742188 18.75 -9.78125 C 18.75 -14.035156 15.824219 -18.964844 8.074219 -18.964844 Z M 8.535156 -1.191406 C 5.769531 -1.191406 5.257812 -1.679688 5.257812 -2.789062 L 5.257812 -16.609375 C 5.257812 -17.609375 5.636719 -17.800781 7.070312 -17.800781 C 12.816406 -17.800781 16.066406 -13.761719 16.066406 -8.507812 C 16.066406 -4.824219 14.605469 -1.191406 8.535156 -1.191406 Z M 8.535156 -1.191406 "/></g></g></g><g fill="#190e00" fill-opacity="1"><g transform="translate(219.402642, 326.147088)"><g><path d="M 2.761719 -3.929688 C 2.761719 -0.839844 1.136719 -1.542969 1.136719 -0.542969 C 1.136719 -0.136719 1.570312 0 2.492188 0 L 5.472656 0 C 6.421875 0 6.800781 -0.136719 6.800781 -0.542969 C 6.800781 -1.542969 5.257812 -0.839844 5.257812 -3.929688 L 5.257812 -15.035156 C 5.257812 -18.125 6.855469 -17.421875 6.855469 -18.421875 C 6.855469 -18.832031 6.421875 -18.964844 5.527344 -18.964844 L 2.546875 -18.964844 C 1.570312 -18.964844 1.191406 -18.832031 1.191406 -18.421875 C 1.191406 -17.421875 2.761719 -18.125 2.761719 -15.035156 Z M 2.761719 -3.929688 "/></g></g></g><g fill="#190e00" fill-opacity="1"><g transform="translate(234.220851, 326.147088)"><g><path d="M 9.890625 0.269531 C 15.824219 0.269531 19.832031 -4.199219 19.832031 -10.160156 C 19.832031 -15.335938 16.417969 -19.238281 11.027344 -19.238281 C 5.203125 -19.238281 1.058594 -14.550781 1.058594 -8.722656 C 1.058594 -3.523438 4.550781 0.269531 9.890625 0.269531 Z M 11.054688 -1.300781 C 6.449219 -1.300781 3.550781 -5.417969 3.550781 -10.730469 C 3.550781 -14.144531 5.796875 -17.800781 9.996094 -17.800781 C 14.523438 -17.800781 17.3125 -13.519531 17.3125 -8.617188 C 17.3125 -4.824219 15.199219 -1.300781 11.054688 -1.300781 Z M 11.054688 -1.300781 "/></g></g></g><g clip-path="url(#b771fa2de8)"><g clip-path="url(#4a767e2f60)"><g clip-path="url(#712fd896a7)"><path fill="#190e00" d="M 269.863281 116.953125 C 269.191406 116.300781 268.335938 115.828125 267.542969 115.304688 C 264.628906 113.382812 261.394531 112.003906 258.457031 110.171875 C 253.941406 107.339844 249.046875 105.585938 243.972656 104.453125 C 238.894531 103.324219 233.605469 102.910156 228.464844 104.636719 C 224.121094 106.109375 219.738281 107.511719 215.460938 109.164062 C 211.609375 110.65625 208.019531 112.636719 205.0625 115.664062 C 203.496094 117.285156 201.753906 118.691406 199.835938 119.875 C 200.21875 117.671875 200.660156 116.003906 200.792969 114.324219 C 201.113281 110.261719 202.867188 107.082031 206.164062 104.707031 C 206.800781 104.246094 207.332031 103.640625 207.941406 103.136719 C 210.015625 101.359375 211.683594 99.265625 212.953125 96.851562 C 213.558594 95.738281 214.152344 94.621094 214.8125 93.539062 C 216.949219 90.097656 218.097656 86.355469 218.257812 82.3125 C 218.386719 78.988281 218.332031 75.65625 218.332031 72.328125 C 218.332031 71.539062 218.367188 70.710938 218.148438 69.96875 C 216.503906 64.371094 213.648438 59.492188 209.152344 55.710938 C 207.445312 54.277344 205.445312 53.289062 203.132812 53.105469 C 201.871094 53.007812 200.613281 52.667969 199.355469 52.671875 C 193.714844 52.679688 188.425781 51.1875 183.160156 49.335938 C 178.695312 47.757812 174.089844 46.375 169.226562 47.519531 C 167.6875 47.867188 166.152344 48.171875 164.601562 48.496094 C 163.511719 48.082031 162.96875 47.054688 162.191406 46.289062 C 158.878906 43.027344 155.050781 41.230469 150.253906 41.414062 C 146.785156 41.546875 143.292969 41.171875 139.8125 41.042969 C 135.695312 40.890625 131.566406 40.496094 127.460938 40.6875 C 121.660156 40.957031 117.757812 44.160156 115.742188 49.589844 C 115.25 50.914062 114.972656 52.332031 114.585938 53.707031 C 113.808594 56.449219 112.460938 58.882812 110.730469 61.25 C 107.808594 60.011719 104.992188 59.714844 102.121094 59.914062 C 98.640625 60.15625 95.480469 61.378906 93.484375 64.253906 C 91.152344 67.589844 88.722656 70.890625 87.472656 74.9375 C 85.695312 80.675781 83.738281 86.386719 80.582031 91.578125 C 78.535156 94.960938 76.582031 98.40625 74.511719 101.773438 C 73.042969 104.171875 72.519531 106.765625 72.699219 109.515625 C 72.789062 110.941406 72.96875 112.351562 73.242188 113.753906 C 73.714844 115.964844 73.648438 118.160156 73.050781 120.339844 C 72.851562 121.105469 72.699219 121.882812 72.59375 122.671875 C 71.273438 130.59375 73.082031 134.566406 79.859375 138.546875 C 79.40625 141.1875 77.59375 142.976562 75.75 144.675781 C 73.613281 146.636719 72.015625 148.953125 70.59375 151.449219 C 70.023438 152.4375 69.546875 153.449219 69.617188 154.578125 C 69.9375 159.800781 70.414062 164.984375 72.265625 169.964844 C 74.328125 175.542969 77.460938 180.441406 81.664062 184.65625 C 84.570312 187.597656 87.980469 189.328125 91.925781 190.125 C 93.941406 190.535156 96.011719 190.671875 98.050781 190.964844 C 100.585938 191.328125 103.089844 191.355469 105.582031 190.597656 C 107.269531 190.058594 108.996094 189.863281 110.757812 190.011719 C 113.578125 190.273438 115.917969 191.226562 117.492188 193.800781 C 118.898438 196.097656 120.296875 198.390625 121.246094 200.929688 C 121.882812 202.640625 123 203.855469 124.582031 204.789062 C 128.007812 206.816406 131.425781 208.777344 135.605469 208.609375 C 135.875 208.597656 136.152344 208.859375 136.429688 208.992188 C 136.519531 209.289062 136.710938 209.59375 136.683594 209.878906 C 136.296875 213.660156 135.84375 217.4375 135.480469 221.222656 C 135.105469 225.160156 134.988281 229.082031 136.671875 232.867188 C 137.5 233.007812 138.308594 232.949219 139.105469 232.699219 C 139.90625 232.449219 140.601562 232.03125 141.199219 231.445312 C 145.5625 227.394531 150.796875 224.789062 156.074219 222.230469 C 160.066406 220.292969 164.101562 218.457031 167.78125 215.929688 C 169.996094 214.40625 172.28125 213.007812 174.808594 211.992188 C 176.855469 211.167969 178.859375 210.117188 180.355469 208.410156 C 182.652344 205.777344 184.785156 203.03125 186.21875 199.800781 C 186.992188 198.066406 187.917969 196.402344 188.78125 194.707031 C 191.222656 189.921875 193.914062 185.277344 195.167969 179.9375 C 196.421875 174.597656 197.167969 169.355469 196.191406 163.945312 C 195.71875 161.300781 195.078125 158.675781 194.558594 156.050781 C 194.414062 155.34375 193.964844 154.597656 194.59375 153.867188 C 197.101562 156.523438 199.480469 159.277344 202.117188 161.777344 C 205.222656 164.703125 208.464844 167.496094 211.800781 170.152344 C 215.632812 173.207031 219.507812 176.246094 223.601562 178.945312 C 228.613281 182.246094 233.875 185.164062 239.003906 188.289062 C 247.125 193.234375 255.386719 197.90625 264.371094 201.152344 C 265.113281 201.417969 265.804688 201.824219 266.53125 202.144531 C 271.878906 204.519531 277.351562 206.585938 282.890625 208.476562 C 287.402344 210.019531 292.058594 210.917969 296.707031 211.890625 C 301.046875 212.792969 305.363281 213.824219 309.710938 214.714844 C 310.953125 214.929688 312.203125 214.992188 313.460938 214.90625 C 314.253906 214.875 314.378906 214.199219 314.121094 213.488281 C 313.367188 212.804688 312.390625 212.804688 311.476562 212.761719 C 309.882812 212.691406 308.371094 212.257812 306.828125 211.980469 C 302.761719 211.246094 298.832031 209.988281 294.800781 209.25 C 287.90625 207.992188 281.21875 206.203125 274.839844 203.277344 C 273.109375 202.476562 271.359375 201.773438 269.609375 201.035156 C 265.097656 199.121094 260.476562 197.421875 256.089844 195.246094 C 246.566406 190.53125 237.363281 185.261719 228.476562 179.433594 C 219.339844 173.410156 210.535156 166.964844 202.628906 159.371094 C 200.59375 157.410156 198.878906 155.109375 196.398438 152.253906 C 199.683594 153.175781 202.128906 153.777344 204.515625 154.546875 C 211.507812 156.8125 218.414062 155.914062 224.914062 153.171875 C 228.96875 151.457031 233.171875 150.0625 237.136719 148.082031 C 239.246094 147.03125 241.492188 146.210938 243.507812 144.949219 C 246.582031 143.019531 249.519531 140.839844 252.714844 139.136719 C 259.582031 135.472656 264.796875 129.992188 269.753906 124.210938 C 270.886719 122.902344 271.96875 121.507812 271.863281 119.425781 C 271.242188 118.664062 270.636719 117.722656 269.863281 116.953125 Z M 169.992188 49.347656 C 174.230469 48.828125 178.277344 49.589844 182.089844 51.121094 C 187.429688 53.261719 192.972656 54.453125 198.722656 54.6875 C 200.152344 54.761719 201.566406 54.941406 202.972656 55.148438 C 204.917969 55.398438 206.632812 56.164062 208.121094 57.445312 C 212.375 61.214844 215.335938 65.820312 216.597656 71.425781 C 216.6875 71.726562 216.738281 72.039062 216.746094 72.355469 C 216.5625 76.300781 216.761719 80.332031 216.054688 84.1875 C 214.574219 92.226562 210.601562 98.917969 203.4375 104.335938 C 203.214844 101.320312 203.042969 99.136719 202.882812 96.9375 C 202.539062 92.140625 200.496094 87.984375 197.265625 84.644531 C 193.535156 80.789062 189.378906 77.375 184.554688 74.816406 C 180.644531 72.746094 176.75 72.433594 172.71875 74.261719 C 171.277344 74.910156 169.902344 75.707031 168.457031 76.339844 C 167.457031 76.773438 166.390625 77.042969 165.5625 77.316406 C 164.394531 76.839844 164.425781 76.007812 164.328125 75.234375 C 163.515625 69.097656 163.347656 62.9375 163.335938 56.746094 C 163.316406 52.953125 166.625 49.761719 169.992188 49.347656 Z M 112.960938 61.675781 C 114.847656 58.726562 116.371094 55.648438 117.023438 52.132812 C 117.726562 48.34375 119.957031 45.5625 123.410156 43.761719 C 124.394531 43.246094 125.4375 42.917969 126.539062 42.78125 C 130.339844 42.273438 134.125 42.558594 137.910156 42.867188 C 142.324219 43.222656 146.734375 43.515625 151.175781 43.554688 C 156.550781 43.605469 160.34375 46.375 162.773438 51.078125 C 162.261719 52.3125 161.660156 53.28125 161.476562 54.324219 C 161.261719 55.554688 161.457031 56.855469 161.394531 58.117188 C 161.089844 63.996094 162.117188 69.785156 162.53125 75.613281 L 162.703125 78.1875 C 159.359375 80.351562 155.863281 81.925781 152.019531 82.167969 C 150.761719 81.339844 151.320312 80.308594 151.300781 79.449219 C 151.265625 76.460938 147.605469 74.363281 145.105469 76.585938 C 144.761719 76.917969 144.398438 77.222656 144.011719 77.5 C 143.777344 77.652344 143.445312 77.664062 143.070312 77.773438 C 142.144531 76.796875 141.203125 75.765625 140.214844 74.785156 C 139.511719 74.09375 138.667969 73.695312 137.691406 73.585938 C 135.835938 73.34375 134.453125 74.195312 134.296875 76 C 134.171875 77.398438 134.355469 78.820312 134.410156 80.292969 C 133.703125 81.273438 132.390625 80.644531 131.484375 81.300781 C 130.496094 82.011719 130.648438 83.3125 129.726562 84.140625 C 128.554688 83.402344 127.359375 82.648438 126.167969 81.898438 C 125.3125 81.375 124.402344 81.234375 123.429688 81.484375 C 121.214844 81.953125 120.058594 83.496094 120.71875 85.632812 C 121.203125 87.183594 122.035156 88.558594 120.449219 89.894531 C 120.035156 93.421875 120.304688 94.875 123.140625 96.226562 C 124.128906 96.699219 125.164062 97.148438 126.027344 97.808594 C 126.503906 98.175781 126.480469 98.945312 125.921875 99.492188 C 124.675781 99.6875 123.988281 98.628906 123.039062 98.164062 C 122.191406 97.746094 121.457031 97.097656 120.621094 96.652344 C 117.578125 95.085938 115.855469 95.402344 113.492188 97.917969 C 113.179688 98.25 112.925781 98.632812 112.664062 98.96875 C 111.425781 98.972656 111.023438 98.023438 110.605469 97.222656 C 108.320312 92.84375 106.6875 88.234375 105.703125 83.398438 C 104.570312 77.894531 105.546875 72.695312 108.734375 67.988281 C 110.152344 65.886719 111.597656 63.804688 112.960938 61.675781 Z M 145.792969 78.945312 C 146.234375 78.027344 147.324219 77.527344 148.105469 77.886719 C 148.886719 78.25 149.171875 79.015625 149.019531 79.820312 C 148.820312 80.878906 148.484375 81.914062 148.203125 82.972656 C 146.960938 83.5 146.21875 83.65625 145.382812 83.382812 C 144.722656 81.847656 145.105469 80.382812 145.792969 78.945312 Z M 143.128906 84.515625 C 140.144531 83.457031 137.925781 82.351562 136.683594 79.773438 C 136.046875 78.453125 135.964844 78.496094 136.644531 75.214844 C 141.511719 76.574219 141.710938 80.605469 143.128906 84.515625 Z M 135.550781 85.152344 C 136.242188 86.703125 136.242188 86.703125 134.5 88.382812 C 132.53125 86.96875 131.902344 85.390625 132.558594 83.367188 C 134.738281 83.285156 134.738281 83.285156 135.550781 85.152344 Z M 130.453125 91.054688 C 126.582031 90.585938 124.339844 88.652344 122.8125 85.769531 C 122.621094 85.410156 122.5625 85.027344 122.640625 84.625 C 122.71875 84.222656 122.914062 83.886719 123.226562 83.625 C 123.46875 83.40625 123.75 83.28125 124.074219 83.253906 C 124.398438 83.226562 124.695312 83.296875 124.972656 83.472656 C 127.742188 85.066406 130.175781 86.933594 130.460938 91.050781 Z M 126.726562 94.996094 C 124.976562 95.589844 123.703125 94.761719 122.632812 93.535156 C 122.082031 92.902344 122.097656 92.066406 122.453125 91.3125 C 122.695312 90.773438 123.925781 90.691406 124.597656 91.066406 C 126.097656 91.90625 126.976562 93.082031 126.730469 94.988281 Z M 119.25 102.863281 C 118.074219 102.957031 117.128906 102.441406 116.25 101.742188 C 115.265625 100.957031 114.949219 99.820312 115.433594 98.84375 C 115.917969 97.867188 117.003906 97.417969 118.207031 97.640625 C 120.183594 98.003906 121.382812 99.507812 123.03125 100.648438 C 122.089844 102.722656 120.652344 102.75 119.25 102.863281 Z M 124.90625 109.726562 C 123.011719 109.988281 121.5 109.65625 120.011719 109.171875 C 119.207031 108.910156 118.660156 108.335938 118.722656 107.464844 C 118.777344 106.667969 119.128906 105.957031 120.019531 105.734375 C 120.46875 105.617188 120.925781 105.535156 121.390625 105.484375 C 124.648438 105.167969 125.066406 105.636719 124.902344 109.722656 Z M 74.78125 130.011719 C 74.027344 126.773438 74.371094 123.679688 75.140625 120.628906 C 75.75 118.296875 75.800781 115.957031 75.292969 113.601562 C 74.933594 111.910156 74.867188 110.144531 74.804688 108.40625 C 74.730469 106.320312 75.121094 104.355469 76.332031 102.539062 C 77.648438 100.566406 78.632812 98.382812 79.960938 96.410156 C 83.9375 90.433594 86.917969 83.992188 88.902344 77.09375 C 89.996094 73.367188 91.898438 70.089844 93.851562 66.855469 C 96.730469 62.054688 102.664062 60.371094 107.960938 62.535156 C 108.34375 62.691406 108.574219 63.203125 108.871094 63.542969 C 108.628906 65.085938 107.546875 66.089844 106.804688 67.277344 C 103.035156 73.308594 102.460938 79.769531 104.445312 86.46875 C 105.507812 90.117188 106.773438 93.695312 108.242188 97.199219 C 109.832031 100.957031 112.429688 103.839844 116.679688 104.488281 C 116.9375 106.175781 116.832031 107.558594 116.304688 108.953125 C 113.964844 109.34375 111.628906 109.765625 109.289062 110.089844 C 105.34375 110.636719 101.578125 111.832031 97.859375 113.199219 C 93.191406 114.921875 89.714844 118.074219 87.386719 122.390625 C 85.585938 125.726562 83.820312 129.101562 82.804688 132.8125 C 82.523438 133.84375 81.921875 134.785156 81.417969 135.867188 C 77.777344 135.332031 75.628906 133.667969 74.78125 130.011719 Z M 112.132812 187.855469 C 106.429688 188.628906 101.152344 189.878906 95.507812 188.773438 C 91.523438 188.003906 87.667969 187.230469 84.667969 184.480469 C 81.515625 181.605469 78.597656 178.472656 76.570312 174.613281 C 73.722656 169.207031 72.3125 163.386719 71.542969 157.386719 C 71.285156 155.433594 71.667969 153.617188 72.695312 151.933594 C 73.980469 149.738281 75.253906 147.621094 77.125 145.832031 C 80.527344 142.59375 82.914062 138.726562 84.285156 134.234375 C 85.269531 131.046875 86.617188 128.042969 87.984375 125.015625 C 90.273438 119.949219 94.046875 116.582031 99.199219 114.722656 C 105.042969 112.601562 111.136719 111.578125 117.332031 111.226562 C 120.078125 111.070312 122.644531 111.863281 125.742188 112.890625 C 127.394531 119.332031 130.957031 124.851562 132.921875 130.914062 C 132.644531 131.316406 132.515625 131.738281 132.289062 131.789062 C 128.085938 132.886719 124.527344 135.324219 120.824219 137.40625 C 117.929688 139.035156 115.292969 141.117188 112.390625 142.730469 C 108.742188 144.753906 106.792969 147.917969 106.210938 151.8125 C 104.933594 160.433594 104.039062 169.089844 105.738281 177.789062 C 106.246094 180.382812 107.796875 182.351562 109.320312 184.371094 C 110.140625 185.457031 111.53125 186.097656 112.132812 187.855469 Z M 131.652344 205.984375 C 127.835938 205.03125 124.378906 203.03125 122.6875 198.890625 C 120.199219 192.796875 116.351562 187.648438 111.402344 183.25 C 110.382812 182.34375 109.542969 181.300781 108.878906 180.113281 C 108.214844 178.921875 107.765625 177.660156 107.527344 176.316406 C 106.597656 171.15625 106.023438 165.992188 107.171875 160.753906 C 107.609375 158.753906 107.550781 156.65625 107.890625 154.621094 C 108.179688 152.742188 108.617188 150.898438 109.207031 149.089844 C 109.769531 147.4375 110.738281 145.988281 112.328125 145.027344 C 115.578125 143.066406 118.765625 140.996094 122.019531 139.042969 C 123.78125 137.984375 125.652344 137.109375 127.441406 136.09375 C 129.398438 134.984375 131.4375 134.265625 133.585938 134.335938 C 134.878906 135.28125 134.859375 136.65625 135.261719 137.824219 C 136.132812 140.367188 136.722656 143.027344 137.839844 145.453125 C 139.902344 149.960938 143.207031 153.292969 148.199219 154.492188 C 154.695312 156.015625 161.265625 157.03125 167.917969 157.542969 C 170.519531 157.761719 172.929688 156.941406 175.402344 156.414062 C 176.929688 156.089844 178.339844 155.175781 180.578125 155.546875 C 175.519531 161.820312 171.832031 168.480469 167.523438 174.730469 C 166.085938 176.8125 164.996094 179.117188 163.785156 181.34375 C 161.59375 185.363281 159.402344 189.414062 156.542969 193.023438 C 155.035156 194.867188 153.773438 196.871094 152.761719 199.027344 C 152.160156 200.324219 151.425781 201.539062 150.566406 202.679688 C 149.703125 203.890625 148.558594 204.707031 147.132812 205.125 C 142.023438 206.554688 136.765625 207.277344 131.640625 205.992188 Z M 192.019531 155.726562 C 195.640625 165.386719 195.304688 174.980469 191.683594 184.539062 C 191.289062 185.574219 190.765625 186.558594 190.273438 187.546875 C 188.433594 191.226562 186.613281 194.917969 184.71875 198.574219 C 182.039062 203.75 178.589844 208.148438 172.9375 210.445312 C 171.324219 211.132812 169.816406 212.003906 168.414062 213.058594 C 164.414062 215.964844 160.0625 218.222656 155.539062 220.15625 C 150.261719 222.398438 145.472656 225.449219 140.964844 228.972656 C 140.226562 229.554688 139.425781 230.054688 138.535156 230.671875 C 138.164062 230.246094 137.667969 229.941406 137.617188 229.574219 C 136.660156 222.746094 137.453125 216.027344 138.691406 209.367188 C 140.460938 208.425781 142.140625 208.046875 143.839844 207.734375 C 145.082031 207.496094 146.339844 207.300781 147.5625 206.96875 C 150.484375 206.171875 152.71875 204.460938 153.757812 201.570312 C 154.574219 199.289062 155.808594 197.308594 157.285156 195.421875 C 160.898438 190.792969 163.757812 185.683594 166.445312 180.492188 C 167.625 178.246094 168.914062 176.070312 170.316406 173.957031 C 173.171875 169.582031 176.113281 165.257812 179.023438 160.921875 C 181.757812 156.84375 185.355469 153.984375 190.019531 152.859375 C 191.335938 153.625 191.625 154.703125 192.011719 155.734375 Z M 190.824219 147.542969 C 189.808594 149.945312 187.96875 151.398438 185.660156 152.0625 C 181.09375 153.375 176.464844 154.464844 171.824219 155.507812 C 170.613281 155.777344 169.292969 155.667969 168.03125 155.609375 C 161.519531 155.316406 155.191406 153.777344 148.796875 152.695312 C 145.945312 152.21875 143.992188 150.421875 142.132812 148.34375 C 139.953125 146.171875 138.902344 143.269531 138.183594 140.394531 C 136.421875 133.277344 133.761719 126.5625 130.589844 119.96875 C 128.179688 114.945312 126.878906 109.546875 127.441406 103.839844 C 127.75 100.738281 128.867188 98.128906 130.640625 95.558594 C 133.890625 90.859375 138.414062 88.253906 143.691406 86.679688 C 145.359375 86.179688 147.019531 85.597656 148.714844 85.253906 C 156.535156 83.644531 163.871094 80.710938 170.996094 77.199219 C 172.265625 76.574219 173.632812 76.140625 174.960938 75.636719 C 177.496094 74.675781 180.066406 74.980469 182.367188 76.101562 C 187.5625 78.609375 192.089844 82.011719 195.949219 86.300781 C 200.308594 91.167969 201.660156 97.226562 200.785156 103.609375 C 200.140625 108.167969 199.214844 112.667969 198.003906 117.109375 C 196.339844 123.242188 195.105469 129.457031 194.296875 135.757812 C 193.769531 139.925781 192.425781 143.738281 190.820312 147.546875 Z M 268.367188 122.648438 C 264.519531 127.25 260.773438 132.019531 255.386719 134.964844 C 251.210938 137.242188 247.746094 140.585938 243.425781 142.621094 C 239.699219 144.378906 236.144531 146.472656 232.34375 148.003906 C 228.972656 149.359375 225.691406 151.050781 222.261719 152.105469 C 216.503906 153.875 210.5625 154.746094 204.597656 152.390625 C 201.371094 151.121094 198 150.214844 194.695312 149.132812 C 194.109375 148.941406 193.472656 148.796875 193.035156 147.902344 C 196.824219 140.757812 196.34375 132.4375 198.4375 124.316406 C 200.945312 123.128906 202.816406 120.722656 204.851562 118.59375 C 209.148438 114.089844 214.464844 111.472656 220.152344 109.410156 C 222.957031 108.386719 225.835938 107.566406 228.648438 106.558594 C 233.960938 104.652344 239.261719 105.394531 244.542969 106.578125 C 251.285156 108.085938 257.089844 111.726562 263.070312 114.941406 C 264.601562 115.761719 266.109375 116.644531 267.558594 117.609375 C 269.84375 119.128906 270.128906 120.535156 268.367188 122.648438 Z M 268.367188 122.648438 " fill-opacity="1" fill-rule="nonzero"/></g></g></g></svg>